<?xml version="1.0" encoding="utf-8"?>
<!-- Generator: Adobe Illustrator 23.0.2, SVG Export Plug-In . SVG Version: 6.00 Build 0)  -->
<svg version="1.1" id="Layer_1" xmlns="http://www.w3.org/2000/svg" xmlns:xlink="http://www.w3.org/1999/xlink" x="0px" y="0px"
	 viewBox="0 0 582.41 388.19" style="enable-background:new 0 0 582.41 388.19;" xml:space="preserve">
<style type="text/css">
	.st0{fill:#C8657D;}
	.st1{fill:none;stroke:#EB3A86;stroke-width:5.289;stroke-miterlimit:10;}
	.st2{fill:#EB3A86;}
	.st3{fill:#CE7F2E;}
	.st4{fill:#F17522;}
	.st5{fill:#8AB1CD;}
	.st6{fill:#32C5F4;}
</style>
<g>
	<g>
		<path class="st0" d="M414.55,140.72l-75.94-25.5c-9.54-3.2-14.67-13.53-11.47-23.06l21.04-62.65c-0.2-0.07-0.39-0.14-0.58-0.2
			L271.06,3.6c-9.54-3.2-19.86,1.93-23.07,11.47l-69.11,205.78c-3.2,9.54,1.93,19.86,11.47,23.06l154.25,51.8
			c9.54,3.2,19.86-1.93,23.07-11.47l43.01-128.06C412.41,151.06,413.68,145.89,414.55,140.72"/>
		<path class="st1" d="M414.55,140.72l-75.94-25.5c-9.54-3.2-14.67-13.53-11.47-23.06l21.04-62.65c-0.2-0.07-0.39-0.14-0.58-0.2
			L271.06,3.6c-9.54-3.2-19.86,1.93-23.07,11.47l-69.11,205.78c-3.2,9.54,1.93,19.86,11.47,23.06l154.25,51.8
			c9.54,3.2,19.86-1.93,23.07-11.47l43.01-128.06C412.41,151.06,413.68,145.89,414.55,140.72z"/>
		<path class="st2" d="M338.61,115.22l75.94,25.5c7.96-47.53-19.39-95.12-66.36-111.21l-21.04,62.65
			C323.94,101.69,329.08,112.02,338.61,115.22"/>
		<path class="st1" d="M338.61,115.22l75.94,25.5c7.96-47.53-19.39-95.12-66.36-111.21l-21.04,62.65
			C323.94,101.69,329.08,112.02,338.61,115.22z"/>
		
			<rect x="303.82" y="56.53" transform="matrix(0.3184 -0.948 0.948 0.3184 83.6552 388.9845)" class="st2" width="16.99" height="159.58"/>
		
			<rect x="295.54" y="81.17" transform="matrix(0.3184 -0.948 0.948 0.3184 54.6556 397.936)" class="st2" width="16.99" height="159.58"/>
		
			<rect x="286.5" y="105.55" transform="matrix(0.3184 -0.948 0.948 0.3184 25.3767 405.9828)" class="st2" width="16.99" height="159.58"/>
		
			<rect x="278.22" y="130.2" transform="matrix(0.3184 -0.948 0.948 0.3184 -3.6229 414.9343)" class="st2" width="16.99" height="159.58"/>
		
			<rect x="247.51" y="170.97" transform="matrix(0.3184 -0.948 0.948 0.3184 -40.7741 397.484)" class="st2" width="16.99" height="112.25"/>
		
			<rect x="268.45" y="62.69" transform="matrix(0.3184 -0.948 0.948 0.3184 97.6112 328.0803)" class="st2" width="16.99" height="66.95"/>
	</g>
	<g>
		<path class="st3" d="M35.53,143.22c2.17,2.54,5.98,2.84,8.51,0.67c2.54-2.17,2.84-5.98,0.67-8.51c-1.75-2.05-4.58-2.64-6.94-1.64
			l-35-40.98c6.02,2.09,62.33,29.23,62.33,29.23s-11.01,14.4,2.31,30l-19.03,16.25c-13.32-15.59-29.26-6.97-29.26-6.97L0,95.13
			l35,40.98C33.64,138.28,33.78,141.16,35.53,143.22"/>
		
			<rect x="48.97" y="159.85" transform="matrix(0.7604 -0.6495 0.6495 0.7604 -93.2928 81.6461)" class="st3" width="30.06" height="14.82"/>
		
			<rect x="56.33" y="172.37" transform="matrix(0.7604 -0.6495 0.6495 0.7604 -98.911 91.6788)" class="st3" width="36.93" height="15.04"/>
		
			<rect x="134.48" y="159.1" transform="matrix(0.7604 -0.6494 0.6494 0.7604 -141.2645 167.306)" class="st4" width="43.28" height="232.03"/>
		<path class="st3" d="M220.79,384.15c4.13,4.84,11.4,5.41,16.24,1.28l15.4-13.15c4.84-4.13,5.41-11.4,1.28-16.24l-4.34-5.09
			l-32.91,28.11L220.79,384.15z"/>
	</g>
	<g>
		<path class="st5" d="M507.42,234.02c2.24,0.13,4.37,0.46,6.68,0.48c-1.81,1.98-3.85,4.01-6.19,6.1
			c-35.39,31.72-144.88,131.24-164.5,142.81c-13.87,8.18-20.57,2.53-12.8-12.33c10.55-20.18,106.75-132.73,136.58-169.72
			c1.02-1.26,2.03-2.45,3.03-3.56C473.44,217.89,491.38,233.07,507.42,234.02"/>
		<path class="st6" d="M540.63,131.38c-37.61,4.39-46.77,30.17-46.46,44.29c0.03,1.22,0.12,2.42,0.26,3.6
			c2.22,17.67,17.59,30.55,31.71,30.89c1.97,0.05,3.84,0.27,5.88,0.22c6.5-0.16,17.7-0.5,35.91-21.25
			c38.82-44.23-12.72-98.63-12.72-98.63c0.06,23.35-4.8,30.71-4.8,30.71S549.02,130.4,540.63,131.38"/>
		<path class="st5" d="M490.76,181.74c-5.47,2.12-11.58,6.3-18.17,13.65c3.23,20.08,21.18,35.26,37.21,36.21
			c2.24,0.13,4.37,0.46,6.68,0.48c6.27-6.85,9.54-13,10.93-18.36c-0.12-0.01-0.24-0.02-0.36-0.02
			C512.17,212.82,495.64,199.67,490.76,181.74"/>
	</g>
</g>
</svg>
