<?xml version="1.0" encoding="utf-8"?>
<!-- Generator: Adobe Illustrator 23.0.2, SVG Export Plug-In . SVG Version: 6.00 Build 0)  -->
<svg version="1.1" id="Layer_1" xmlns="http://www.w3.org/2000/svg" xmlns:xlink="http://www.w3.org/1999/xlink" x="0px" y="0px"
	 viewBox="0 0 237.52 154.79" style="enable-background:new 0 0 237.52 154.79;" xml:space="preserve">
<style type="text/css">
	.st0{fill:#ED9C57;}
</style>
<path class="st0" d="M183.24,45.72c-46.88-60.96-82.07-60.96-128.96,0c0,0-54.28,12.91-54.28,29.66s19.94,17.66,19.94,17.66
	s25.85,5.35,33.56,12.33c7.71,6.98,41.94,49.41,65.26,49.41s57.55-42.42,65.26-49.41c7.71-6.98,33.56-12.33,33.56-12.33
	s19.94-0.91,19.94-17.66S183.24,45.72,183.24,45.72z M111.36,39.08c-0.86,8.75-5.05,15.49-9.34,15.07c-4.3-0.42-7.08-7.86-6.21-16.6
	s5.05-15.49,9.34-15.07S112.22,30.33,111.36,39.08z M135.5,54.14c-4.3,0.42-8.48-6.32-9.34-15.07c-0.86-8.75,1.92-16.18,6.21-16.6
	c4.3-0.42,8.48,6.32,9.34,15.07S139.8,53.72,135.5,54.14z"/>
</svg>
