<?xml version="1.0" encoding="utf-8"?>
<!-- Generator: Adobe Illustrator 23.0.2, SVG Export Plug-In . SVG Version: 6.00 Build 0)  -->
<svg version="1.1" id="Layer_1" xmlns="http://www.w3.org/2000/svg" xmlns:xlink="http://www.w3.org/1999/xlink" x="0px" y="0px"
	 viewBox="0 0 493.71 690.43" style="enable-background:new 0 0 493.71 690.43;" xml:space="preserve">
<style type="text/css">
	.st0{fill:#ED9C57;}
	.st1{fill:#EC944A;}
	.st2{fill:#FEFEFD;}
</style>
<g>
	<path class="st0" d="M493.71,296c-2.35-1.19-3.54,0.94-4.97,1.93c-3.37,2.35-7.13,3.84-10.79,5.54c-0.21-0.98-0.37-1.98-1.35-2.54
		c4.18-4.82,11.04-3.05,15.82-6.4c0.37-0.26,0.86-0.36,1.29-0.53C493.71,294.67,493.71,295.33,493.71,296z"/>
	<path class="st0" d="M433.71,0c-0.4,3.91-3.05,6.14-6.37,9.2c-0.21-4.74,3.66-6.18,4.37-9.2C432.38,0,433.04,0,433.71,0z"/>
	<path class="st1" d="M476.6,300.93c0.98,0.56,1.15,1.56,1.35,2.54c-11.38,7.66-22.77,15.3-34.1,23.03
		c-0.51,0.34-0.48,1.47-0.72,2.28c2.64,0.6,5.04,1.34,7.49,1.65c3.62,0.46,5.08,2.94,5.87,5.95c0.63,2.41,0.05,4.68-2.19,6.16
		c-2.71,1.79-5.56,1.96-8.55,0.65c-4.28-1.89-5.27-5.74-5.77-9.8c-0.63-5.1-0.91-5.26-5.42-2.39c-7.28,4.63-14.55,9.28-21.86,13.86
		c-2.81,1.76-5.74,3.34-8.62,5.01c-2.72,1.57-4.77,3.16-0.5,5.45c0.57,0.31,0.71,1.4,1.06,2.14c0,0,0.09-0.01,0.09-0.01
		c-2,1-3.83,0.22-5.77-0.36c-7.82-2.36-15.34-1.45-22.53,2.38c-12.59,6.7-21.27,17.17-28.22,29.31c-0.79,1.39-2.35,2.65-0.84,4.4
		c1.37,1.59,3,1.05,4.53,0.25c7.42-3.86,15.47-6.62,21.79-12.42c1.1,0.06,2.3-0.17,3.02,1.02c-6.05,5.49-13.34,9-20.51,12.68
		c-1.18,0.6-3.12,0.95-3.14,2.17c-0.12,7.43-6.82,7.32-11.12,9.69c-2.12,1.17-4.61,1.08-2.67,4.43c0.33,0.57,0.07,1.61-0.18,2.34
		c-1.12,3.37-4.57,5.64-4.52,9.66c0.01,0.6-1.41,1.71-2.21,1.76c-6.67,0.42-11.86,5.36-18.38,6c-4.09,0.4-2.9,4.37-4.7,6.26
		c-0.82,0.86-0.2,3.3-2.17,2.67c-1.9-0.6-0.61-2.45-0.2-3.42c1.87-4.44,0.08-4.3-3.7-3.95c-4.56,0.42-8.12-0.26-12.01,4.56
		c-3.73,4.62-10.36,7.94-17.14,8.94c-2.11,0.31-2.71,2.05-3.52,3.77c-1.78,3.77-1.69,8.19-4.19,11.68
		c-1.17,1.63,0.15,2.12,1.23,2.38c3.39,0.8,5.14,3.48,7.12,5.91c1.11,1.36,1.7,3.24,4.11,3.01c1.01-0.1,1.83,0.8,1.73,2.01
		c-0.56,7.03,5.49,8.71,9.66,11.86c1.87,1.41,2.35-0.77,2.74-1.67c1.27-3.01,3.18-5.84,2.86-9.38c-0.1-1.07-0.08-2.69,1.24-2.97
		c1.57-0.33,1.39,1.43,1.98,2.34c4.14,6.4-0.1,11.76-2.22,17.27c-1.68,4.34-1.77,8.9-2.13,13.33c-0.25,3,3.49,4.24,5.6,5.66
		c3.09,2.08,6.86,2.85,10.72,3.72c9.44,2.12,20.36,3.37,24.78,14.68c1.36,3.49,4.3,5.95,6.77,8.55c3.54,3.72,0.83,7.18,0.08,10.51
		c-0.19,0.85-1.81,2.13-1.95,3.82c-0.15,1.78-1.6,1.87-3,1.82c-1.66-0.06-2.86-0.6-3.1-2.53c-0.24-1.93-6.06-7.61-7.58-7.27
		c-2.38,0.53-1.51,2.6-1.42,4.08c0.16,2.54,2.18,6.32-3.42,3.62c-1.51-0.73-3,1.13-4.26,2.17c-2.05,1.69-3.9,3.64-5.99,5.28
		c-4.72,3.7-5.74,3.43-8.11-1.95c-1.79,1.7-2.75,3.71-2.92,6.12c-0.05,0.75-0.09,1.5-0.14,2.26c-3.4,5.64-4.18,12.14-5.87,18.32
		c-0.54,1.97-1.02,3.73-3.04,5.12c-0.63-8.1,1.62-15.89,1-23.8c-0.21-2.7-0.22-5.71-1.75-7.6c-3.45-4.25-5.2-9.62-4.88-14.19
		c0.47-6.81-2.34-7.55-7.69-9.55c-5.09-1.91-7.88-8.35-12.69-11.79c-0.67-0.48-1.12-1.34-0.28-2.11c0.73-0.67,1.66-0.43,2.3,0.07
		c2.36,1.82,5.18,3.04,7.06,5.49c1.19,1.56,2.43,3.08,4.22,4.5c0.65-3.21,1.41-5.21,4.9-4.35c1.84,0.46,1.08-1.58,1.49-2.5
		c0.18-0.92,0.24-1.8-0.64-2.43c-0.36-1.25-0.42-2.6-2.11-3.06c-0.65-0.18-1.63-1.13-1.58-1.66c0.9-10.33-3.67-18.64-9.6-26.46
		c-0.77-1.02-0.83-2.15-0.84-3.31c-0.02-4.53-0.43-8.48-6.07-9.95c-1.59-0.41-2.66-3.55-3.59-5.61c-0.96-2.13-2.11-2.08-3.21-0.51
		c-2.49,3.56-6.05,3.58-9.8,3.55c-3.13-0.02-6.28-0.45-9.39,0.73c-2.68,1.02-4,2.86-5.41,5.32c-2.53,4.43-4.05,10.51-11.17,10.01
		c-0.29-0.02-0.64,0.12-0.89,0.29c-4.06,2.89-4.06,2.89-7.67,2.09c6.48-5.35,6.7-7.54,1.22-14.89c2.99-0.65,5.27,0.44,7.2,2.33
		c1.1,1.07,1.92,1.27,2.63-0.23c3.5-7.4,10.5-8.17,17.28-8.51c4.66-0.23,8.66-1.84,12.89-3.45c-0.7-2.38-2.75-3.11-4.44-3.82
		c-3.17-1.33-5.91-3.24-7.97-5.84c-1.9-2.4-3.56-2.52-5.86-0.82c-0.91,0.68-2.06,1.12-3.16,1.44c-1.11,0.32-2.38,0.44-3.18-0.71
		c-0.92-1.33,0.08-2.16,0.97-2.92c2.61-2.22,4.91-4.52,3.65-8.45c-0.15-0.47,0.31-1.6,0.71-1.72c8.38-2.54,4.11-9.21,3.48-13.44
		c-1.99-13.24-8.21-24.99-14.97-36.47c-3.35-5.69-5.88-11.87-8.23-18.84c-1.59,1.79-2.4,3.82-4.74,4c-2.26,0.18-1.46,2.23-1.56,3.58
		c-0.67,8.25,2.4,15.32,7.22,21.72c2.53,3.36,4.75,6.85,5.96,10.85c1.56,5.13,6.77,8.35,7.14,14.06c0.05,0.77,0.3,1.52,0.63,3.16
		c-4.08-2.61-5.83-5.91-7.16-9.36c-1.04-2.71-2.39-4.97-4.57-6.96c-3.08-2.81-5.55-6.13-6.06-10.56c-0.35-3.03-2.01-5.61-3.38-8.26
		c-5.26-10.12-7.52-21.11-9.26-32.23c-0.26-1.65-1.08-2.52-2.5-3.38c-5.85-3.55-10.09-8.24-11.86-15.23
		c-1.06-4.2-4.78-7.48-5.17-12.13c-0.07-0.87-0.99-1.53-1.82-1.42c-4.92,0.68-6.7-2.1-7.33-6.35c-0.5-3.32-3.28-4.81-5.61-6.63
		c0.32-0.61,0.64-1.22,0.96-1.83c2.86,0.91,5.73,1.81,8.59,2.72c0,0,0.37-0.29,0.37-0.29c-0.06-0.33-0.1-0.65-0.17-0.98
		c-0.42-2.08-0.84-4.16-1.26-6.23c-2.94,1.08-6.12-0.75-9,0.72c-0.93,0.47-1.8,1.07-2.7,0.28c-1.09-0.95-0.9-2.2,0.06-3.04
		c1.14-0.99,0.84-1.95,0.54-3.12c-0.8-3.11-0.07-5.55,4.6-6.84c-5.96-1.79-8.69-6.18-12.91-8.58c0.4-0.33,0.81-0.66,1.21-0.98
		c2.2-0.22,3.65,1.4,5.4,2.25c3.25,1.57,4.19-0.06,4.17-2.99c-0.03-4.54-2.41-6.45-6.83-6.04c-0.59-2.19-2.95-1.78-4.28-2.91
		c-1.4-1.49-0.07-4.4-2.71-5.25c0.32-0.64,0.64-1.29,0.97-1.93c0.68-1.08,1.66-0.95,2.62-0.55c1.27,0.52,2.37,0.02,3.27-0.66
		c2.53-1.92,2.11-11.58-0.35-13.75c-1.9-1.68-4.85-2.41-5.42-5.44c0.38-0.2,0.66-0.47,0.94-0.48c2-0.03,3.53,3.23,5.27,1.68
		c1.89-1.68-0.32-3.97-0.8-5.98c-1.67-7.01-4.26-13.9-2.61-21.33c0.17-0.77,0.14-1.81-0.25-2.44c-3.89-6.28-3.39-13.32-3.49-20.22
		c-0.03-1.99-0.76-2.97-2.24-4c-4.13-2.86-6.16-6.85-5.84-11.92c0.18-2.75-0.47-5.22-2.01-7.54c-1.3-1.95-2.01-4.13-2.17-6.54
		c-0.51-7.5,1.13-9.4,8.3-7.68c4.4,1.05,6.72-0.6,8.4-3.95c1.87-3.72,4.11-4.24,8.08-2.91c4.37,1.45,9,2.22,13.09,4.48
		c1.93,1.06,2.68-0.3,3.7-1.33c0.98-0.98,2.07-1.8,3.53-1.13c1.33,0.6,1.37,1.9,1.05,3.01c-0.75,2.54,1.13,2.96,2.69,3.94
		c3.62,2.27,8.37,2.04,11.53,5.34c0.34,0.35,1.26,0.25,1.9,0.21c10.44-0.72,16.85,4.87,17.55,15.33c0.07,1,0.34,2.09,0.03,2.98
		c-1.23,3.55,0.06,5.81,2.94,7.99c2.4,1.82,2.6,4.87,2.38,7.8c-0.17,2.31-0.15,4.47,1.01,6.74c1.42,2.8,2.41,2.7,4.02-0.22
		c0.22,2.46-1.9,4.02-0.85,6.09c0.51,1,1.32,2.39,0.12,3.17c-1.34,0.86-2.4-0.59-3.48-1.28c-0.41-0.26-0.72-0.69-1.07-1.04
		c-1.64-1.62-2.4-6.48-4.28-4.79c-2.23,2.01-4.35,6.07-2.97,10.19c2.29,6.83,4.48,13.69,6.78,20.51c0.51,1.5,0.34,2.85,0.09,4.37
		c-0.45,2.78-2.51,6.11,2.67,7.3c1.33,0.31,0.57,4.75,4.13,4.16c0,0,0.04-0.05,0.04-0.05c0.57,1.22,0.17,2.96,1.9,3.57
		c1.14,0.89,1.64,3.06,3.81,1.95c2.19-1.53,6.63,0.02,6.6-4.48c-0.02-3.05,1.45-4.92,3.73-6.56c2.73-1.96,5.1-0.77,7.46,1.26
		c0.8-3.77-3.06-5.27-2.74-8.28l0.01,0.08c2.82-1.26,4.21,0.28,5.45,2.58c1.12,2.08,1.56,4.77,4.38,5.54
		c0.25,0.39,0.49,0.79,0.74,1.18c1.02,2.47,3.2,3.69,5.52,3.47c3.33-0.32,6.38-1.01,9.3,1.57c1.24,1.1,2.69,0.01,3.51-1.58
		c1.46-2.86,3.28-3.29,4.99-0.23c0.79,1.41,2.07,0.65,3.03,1.11c1.87,0.91,2.68,2.94,0.87,3.8c-4.35,2.07-2.29,5.55-1.76,8
		c0.64,2.97,0.44,5.86-0.92,7.91c-1.91,2.89-0.67,4.55,0.82,6.58c0.52,1.82,1.59,3.11,3.49,3.58c5.14,4.99,7.7,11.54,10.73,17.81
		c3.96,8.18,8.3,16.08,15.27,22.22c1.32,1.16,2.48,2.83,3.02,4.48c0.67,2.01,0.9,3.88,3.71,3.51c0.83-0.11,1.58,0.47,1.65,1.49
		c0.05,0.79-0.45,1.34-1.1,1.46c-2.8,0.52-3.78,2.94-5.39,4.79c-3.63,4.17-8.15,3.59-12.32-1.2c-1.11-1.28-1.42-4.67-3.92-3.13
		c-2.53,1.56-4.44,4.24-1.66,7.51c1.28,1.51,0.35,2.53-0.77,3.8c-4.02,4.54-3.75,8.35,0.66,12.05c1.95,1.63,4.05,3.51,4.42,5.9
		c0.78,4.98,3.55,4.88,7.48,4.28c3.59-0.55,7.32,0,10.97-0.27c1.58-0.12,4.28,1.54,4.54-1.98c0.02-0.21,0.95-0.65,1.16-0.52
		c6.06,3.88,10.51-1.13,15.31-3.04c5.25-2.09,9.71-5.37,12.29-11.01c4.16-9.09,12.97-11.21,21.68-13.05
		c3.41-0.72,6.91-0.93,10.38-1.38c0.95,0.07,1.9,0.13,2.85,0.2c1.26-0.11,2.8,0.77,3.58-1.01l-0.01,0.01
		c7.22-2.49,13.69-6.46,20.06-10.51c6.68-4.25,12.44-9.78,20.1-12.73c4.85-1.87,0.36-5.15-0.13-7.85c-0.32-1.75-4.93-2.25-1.87-4.26
		c1.54-1.01,5.12,0,6.84,2.45c0.37,0.53,0.58,1.19,0.8,1.81c0.72,2.01,1.61,2.43,3.66,1.15C455.6,313.61,466.12,307.3,476.6,300.93z
		 M282.7,361.95l0.03,0.06c-0.27-2.36-1.18-4.45-2.59-6.37c-0.88-1.2-1.94-2.61-0.63-4.04c4.2-4.57,3.37-9.64,1.69-14.83
		c-0.46-1.42-1.37-3.01-0.2-4.25c3.64-3.87,0.4-6.09-1.94-8.42c-0.5-0.5-1.3-0.39-1.35-1.56c-0.26-6.31-3.81-10.47-9.03-13.56
		c-3.25-1.93-6.96-3.17-9.4-6.4c-0.68-0.89-2.55-2.12-3.32-0.7c-2.51,4.63-7.07,5.59-11.38,7c-1.8,0.59-2.25,1.35-1.06,2.77
		c2.67,3.16,2.79,6.77,2.81,10.74c0.02,3.84-0.93,8.38,2.32,11.39c2.05,1.9,2.83,3.69,3.06,6.37c0.33,3.84,2.17,6.72,7.09,6.69
		c-2.45-3.71-6.04-6.87-2.2-11.29c0.12-0.19,0.14-0.38,0.07-0.57c2.79-1.75,5.79-3.13,8.78-0.91c2.25,1.67,4.46,3.98,3.75,7.11
		c-1.04,4.58-4.75,6.13-9.38,6.19c6.59,8.44,6.42,10.36-1.11,17.86c-0.34,0.34-0.62,0.75-0.89,1.15
		c-3.99,5.91-10.03,6.34-14.59,0.98c-1.38-1.62-2.34-3.1,0.25-4.88c1.67-1.15,3.22-3.13,3.35-5.29c0.47-7.59,0.46-15.39-3.55-22.04
		c-3.61-5.99-3.42-14.86-12.2-17.21c0.4-5.59-5.26-5.64-7.84-8.51c-1.07-1.19-3.52-1.75-3.81-2.96c-1.24-5.19-5.45-4.12-8.72-4.31
		c-3.92-0.22-3.58,3.95-4.61,6.2c-1.13,2.46-0.54,5.51,0.49,8.25c1.15,3.05,3.45,0.67,5.1,1.23c3.48,1.19,4.91,5.84,3.81,6.97
		c-3.84,3.99-0.65,6.98,0.17,10.36c0.47,0.86,0.94,1.72,1.41,2.58c1.32,5.52,5.43,10.85,0.91,16.77c-0.95,1.24-0.09,2.88,0.23,4.34
		c1.97,9.12,7.02,17.36,7.58,26.91c0.08,1.37,1.11,2.72,1.82,4.02c6.77,12.46,11.16,25.83,13.63,39.66
		c1.46,8.16,5.07,15.37,7.56,23.04c1.07,3.31,8.91,5.97,9.29,4.05c0.94-4.76,5.73-5.85,7.58-9.48c0.04-0.29,0.03-0.59-0.02-0.88
		c2.75-2.84,4.68-6.89,3.33-10.07c-2.85-6.71-1.6-13.1-0.56-19.66c0.17-1.05,0.87-1.84,0.52-3.18c-0.81-3.12,1.69-3.39,3.04-1.98
		c2.81,2.93,9.19,1.4,9.34,7.63c0.02,0.9,1.92,1.04,3.11,1.07c1.13,0.03,2.42-0.53,3.31,0.52c0.92,1.08,1.69,2.18,3.19,0.84
		c1.07-0.95,1.7-2.04,1.2-3.52c-1.42-4.26,1.65-10.07-4.71-12.74c-1.44-0.6-0.99-3.09-0.03-4.55c0.9-1.37,2.02-2.66,3.25-3.75
		c3.06-2.69,2.39-5.91,0.19-8.09c-2.94-2.91-3.17-6.01-2.48-9.5c0.9-4.6-0.34-8.22-4.31-10.8c-0.98-0.64-2.04-1.16-2.31-2.45
		c0.31-0.46,0.63-0.92,0.94-1.38C284.17,363.69,284.01,362.82,282.7,361.95z M202.7,207.02c-2.18,5.12-4.8,10.14-3.01,16.02
		c0.44,1.44-0.07,2.69-1.44,3.35c-1.75,0.85-1.38,2.4-1.56,3.86c-0.65,5.47,2.51,11.02-0.44,16.49c-0.48,0.88,0.78,2.03,1.27,3.05
		c1.17,2.41,4.19,4.2,2.64,7.66c-1.52,3.4,0.61,4.03,3.22,4.03c0.51-3.38,0.83-6.69,1.53-9.93c1.37-6.32,2.38-12.38-3.89-17.02
		c-1.43-1.06-2.54-3.61-0.87-4.83c3.29-2.39,4.09-6.41,6.89-9.03c2.66-2.5,2.12-4.96-0.45-7.21c-2-1.75-4.17-3.4-3.93-6.5l0.22-0.12
		L202.7,207.02z M277.51,297.48c1.86,10.08,5.93,19.12,11.06,28.18c1.69-2.33,0.15-4.62,1.89-6.21c1.16,2.52-0.75,5.32,1.23,7.7
		c2.4,2.88,1.69,6.92,3.37,10.21c0.69,1.35,0.38,2.65,2.48,2.56c1.59-0.07,3.19,0.33,5.24,0.58c-0.09-6.93,0.05-13.75-5.4-19.59
		c-0.61,1.79,0.29,3.62-1.1,4.82c-2.93-2.32-3.23-2.5-1.62-5.24c1.43-2.45-0.43-3.55-1.52-4.56c-1.38-1.28-0.94,1.85-2.33,1.48
		C290.42,310.48,283.05,299.31,277.51,297.48z M176.07,252.81c0.73-1.57-1.12-3.2,0.21-4.73c3.56-4.08,2.94-9.28,3.23-14.05
		c0.17-2.8-1.27-6.52-4.22-7.23c-3.63-0.88-7.64,0.39-10.95,2.17c-2.17,1.17,0.04,12.69,2.83,14.12c2.74,1.41,4.05,3.38,5.08,6.1
		C172.84,250.74,173.88,252.52,176.07,252.81z M324.09,523.34c1.72,3.69,3.06,7.63,2.44,11.45c-0.97,5.96,2.89,7.86,6.92,9.74
		c3.47,1.63,5.03,0.18,5.14-3.67c0.08-3.06-0.91-5.27-2.99-7.48c-2.34-2.48-5.11-4.64-6.42-8.08
		C328.4,523.27,326.45,522.55,324.09,523.34z M349.07,378.8c-11.06,4.26-14.03,8.04-12.59,14.99
		C343.72,391.81,346.14,385.68,349.07,378.8z M173.09,223.67c-2.83-1.22-5.43-2.34-5.1-6.15c0.2-2.31-2.36-3.43-3.24-5.38
		c-0.22-0.49-1.61-0.92-2.19-0.69c-1.31,0.51-0.56,1.63-0.28,2.52c1.04,3.23,3.38,6.21,1.57,9.96c-0.46,0.96,0.2,2.22,1.52,1.7
		C167.82,224.68,170.75,225.67,173.09,223.67z M156.64,202.29c1.18,1.06,4.21,0.38,4.06,2.96c-0.14,2.34,1.46,2.79,3.24,2.65
		c2.44-0.19,1.93-2.43,2.12-3.85c0.27-2.04-4.31-6.42-6.26-6.1C157.83,198.28,157.89,200.37,156.64,202.29z M207.78,262.7
		c2.28-4.95,3.28-10.06,0.36-15.23C209.02,252.55,206.32,257.48,207.78,262.7z M287.4,519.52c-1.02,4.04,0.72,7.65,1.03,11.36
		C296.9,526.07,287.5,523.38,287.4,519.52z M192.75,223.25c2.04-4.45,6.4-8.21,4.94-13.91C196.84,214.26,192.5,217.88,192.75,223.25
		z M291.16,501.5c1.33-2.24,2.22-4.4,1.03-6.88c-0.12-0.25-1.58-0.28-1.69-0.07C289.42,496.83,288.86,499.15,291.16,501.5z
		 M253.47,299.54c-1.3-1.23-1.17-3.86-3.5-2.77c-0.9,0.42-2.42,1.98-1.57,3.12C249.59,301.48,251.36,300.26,253.47,299.54z
		 M258.47,265.82c-1.38-0.16-1.78,1.2-1.67,2.5c0.12,1.5,0.7,2.56,2.38,2.61c0.96-0.08,1.77-0.55,1.3-1.54 M285.95,533.08
		c0.66-2.26-0.38-3.67-0.8-5.18C284.76,529.54,284.21,531.2,285.95,533.08z"/>
	<path class="st1" d="M366.33,238.18c0.6-3.75-0.44-7.64,3.49-8.86c3.76-1.17,6.84,0.4,8.81,3.87c0.57,1.01,1.49,1.08,2.5,1.27
		c6.33,1.17,8.55,4.48,5.79,10.07c-2.8,5.66-0.63,9.51,2.46,14.05c6.2,9.12,7.47,19.71,7.12,30.43c-0.13,4.17-0.41,7.19,5.02,7.81
		c4.11,0.47,5.06,5.81,8.91,7.19c0.16,0.06,0.19,0.61,0.19,0.94c0.02,4.75-10.18,11.96-15.07,10.66c-5.83-1.54-9.52-7.06-8.23-12.88
		c0.49-2.2,0.55-3.64-1.4-5.16c-1.83-1.42-1.94-3.94-0.36-5.33c5.59-4.94,2.71-11.07,2.54-16.7c-0.09-3.06-1.5-6.09-2.45-9.1
		c-0.65-2.05-1.55-3.78-3.81-4.88c-4.61-2.25-4.87-4.36-1.67-8.56c0.64-0.83,2.27-1.36,1.24-2.78c-0.74-1.03-1.78-0.25-2.72-0.02
		c-4.31,1.06-10.55-3.1-11.3-7.52c-0.24-1.38-1.19-1.93-2.39-2.09c-2.76-0.36-5.31-1.76-8.3-1.2c-2.46,0.46-4.15-1.06-4.81-3.4
		c-0.72-2.57,1.17-3.58,3.09-4.35c2.15-0.87,3.72-1.19,5.05,1.82C360.86,235.37,363.77,236.37,366.33,238.18z"/>
	<path class="st1" d="M178.34,503.01c2.49,2.81,4.77,2.26,7.14-0.27c2.39-2.55,4.89-4.94,6.43-8.18c0.83-1.73,2.97-3.54,4.04-0.99
		c1.73,4.11,3.86,2.36,6.22,1.4c1.07-0.44,2.31-0.7,3.16-1.41c1.38-1.14,2.33-2.98,4.59-1.89c0.91,0.44,1.11,0.94,0.54,1.93
		c-1.26,2.16-0.91,5.9-4.38,5.91c-4.93,0.01-9.34,1.7-13.96,2.91c-5.05,1.32-7.72,4.89-6.46,10.05c0.98,4.01-1.72,6.13-4.42,7.3
		c-2.71,1.17-2.4,2.09-1.16,3.93c0.74,1.1,1.18,2.43,2.02,3.44c1.61,1.97,1.25,4.02,0.56,6.11c-0.68,2.05-13.45,9.86-15.49,9.36
		c-2.9-0.71-4.81-2.52-4.29-5.73c0.4-2.42,1.98-3.79,4.63-3.44c1.33,0.17,3,2.02,3.87-0.03c0.72-1.7,1.2-4.15,0.5-5.67
		c-1.27-2.74-0.41-6.68-5.02-7.93c-2.24-0.61-0.75-4.25-0.58-6.47c0.16-2.1,0.62-3.91-1.92-4.92c-1.89-0.75-2.88-2.27-2.46-4.38
		c0.5-2.51,2.07-4.16,4.49-4.87c3.84-1.14,7.47-1.02,10.41,2.21C176.76,502.42,177.35,502.9,178.34,503.01z"/>
	<path class="st0" d="M403.43,150.1c-4.38-4.88,1.28-5.65,3.13-7.3c2.55-2.28,5.41-4.4,8.73-5.68c1.85-0.71,3.7-1.46,5.43-2.4
		c1.36-0.74,2.71-1.92,3.72,0.09c0.96,1.89-0.24,3.1-1.93,3.92c-7.77,3.77-13.94,9.53-19.44,16.01c-2.54,2.99-6.79,5.8-2.13,10.61
		c1.34,1.39-0.27,3.51-1.26,4.99c-12.55,18.63-27.94,34.02-48.87,43.26c-4.09,1.81-8.1,3.81-12.36,5.2
		c-1.04,0.34-2.44,0.93-2.96-0.59c-0.38-1.12,0.78-1.64,1.65-2.16c6.2-3.68,12.45-7.04,19.3-9.69c13.7-5.3,24.66-14.74,33.36-26.65
		c1.56-2.14,3.1-4.31,4.52-6.55c1.66-2.62,3.83-5.09,0.29-8.18c-1.62-1.41-0.09-3.49,0.96-4.93c2.15-2.95,4.49-5.77,6.76-8.63
		C402.72,150.91,403.16,150.42,403.43,150.1z"/>
	<path class="st1" d="M200.18,547.09c-1.08-2.42,1.89-3.98,2.05-5.26c0.64-5.08,7.9-7.51,5.04-13.89c-0.86-1.92,0.47-4.73,3.35-5.23
		c4.66-0.81,4.3-4.23,4.12-7.56c-0.03-0.64-0.5-1.24-0.65-1.88c-0.57-2.48-1.09-5,1.47-6.78c1.75-1.23,3.51-0.98,5.02,0.4
		c2.14,1.94,2.94,4.32,2.11,7.21c-0.49,1.71-1.58,3.03-2.84,4.02c-5.8,4.58-5.04,10.24-2.85,16.14c0.56,1.49,0.82,2.98,0.2,4.37
		c-1.8,4.03-3.87,7.86-5.22,12.17c-0.71,2.28-4.99,5.08-8.06,4.51C200.37,554.64,199.03,551.14,200.18,547.09z"/>
	<path class="st0" d="M251.77,253.57c0,0-0.01-0.08-0.01-0.08c-2.14-0.81-3.83,0.8-4.77,1.88c-3.6,4.15-6.78,8.67-10.06,13.1
		c-0.67,0.9-1.36,1.97-0.21,3.08c-2.17,1.11-2.66-1.06-3.81-1.95c3.41-3.85,6.71-7.81,10.29-11.5c1.85-1.91,1.93-3.22,0.5-5.53
		c-2.84-4.63-6.71-8.65-8.96-14.11c2.9-0.47,4.09-0.24,5.21,2.76c1.27,3.42,4.29,6.21,6.68,9.17c1.89,2.34,2.86-0.02,3.78-1.07
		c5.58-6.38,11.09-12.81,16.58-19.27c7.21-8.48,14.83-16.66,21.41-25.59c4.93-6.69,7.57-14.9,12.64-21.63
		c2.47-3.27,4.97-6.51,7.93-9.43c-1.66,5.6-5.53,9.87-8.49,14.66c-1.03,1.67-2.55,2.97-1.04,5.29c1,1.53-0.56,2.74-1.52,3.86
		c-11.21,13.13-22.43,26.27-33.66,39.39c-3.67,4.28-7.48,8.45-11.08,12.79C252.27,250.49,250.29,251.53,251.77,253.57z"/>
	<path class="st1" d="M436.1,241.96c1.18,0,1.85,0.01,2.51,0c5.32-0.05,8.47,1.99,9.02,5.85c0.57,3.99-2.69,8.22-7.29,9.47
		c-3.72,1.01-7.29-1.28-9.24-5.59c-1.92-4.25-4.36-8.11-8.92-10.13c-1.6-0.71-3.87-1.41-3.17-3.78c0.76-2.56,3.03-2.96,5.31-2.2
		c1.8,0.61,2.52,0.02,3.51-1.51c2.66-4.12,6.82-5.37,9.52-3.21C440.15,233.09,439.81,237.35,436.1,241.96z"/>
	<path class="st1" d="M368.34,421.75c-3.89-0.12-7.45-4.03-7.33-8.05c0.12-4.3,3.48-8.19,7.44-7.54c7.95,1.31,13.01-2.94,17.93-8.04
		c1.6-1.66,3.51-3.03,5.37-4.41c2.64-1.96,5.21-3.84,6.46-7.14c0.97-2.57,3.12-3.72,5.96-3.56c2.36,0.13,3.66,1.87,4.51,3.51
		c0.95,1.84-1.25,3.45-2.32,3.77c-8.53,2.56-13.46,10.46-21.46,14.01c-4.02,1.79-9.2,4.13-8.92,10.98
		C376.11,418.97,372.56,421.54,368.34,421.75z"/>
	<path class="st0" d="M155.98,292.85c-0.4,0.33-0.81,0.66-1.21,0.98c-3.47-1.6-7-3.07-10.38-4.86c-2.88-1.52-5.56-1.98-8.4-0.05
		c-0.11,0.07-1.36,2.78-1.3-0.32c0.04-2.07-1.95-1.77-3.46-1.52c-5.87,1-11.6-0.26-17.35-1.1c-1.74-0.25-3.49-1.46-4.8,0.88
		c-0.58,1.04-1.34,0.3-2.03-0.2c-3.96-2.91-8.5-3.27-13.22-3.04c-5.02,0.24-9.63-1.41-14.17-3.44c18.44,1.4,36.61,5.67,56.7,4.67
		c-4.69-2.67-8.39-4.46-10.93-7.66c0.82-1.16,1.79-0.88,2.25-0.31c3.08,3.84,10.84,0.04,11.95,7.57c0.23,1.55,12.62,0.36,14.81-1.31
		c1.33,1.12,3.69,0.72,4.28,2.91c-0.24,0.62-0.38,1.31-0.73,1.85c-0.55,0.84-0.87,0.18-1.43-0.21c-2.43-1.69-4.51-0.44-6.99,0.9
		C151.57,290.79,154.51,290.77,155.98,292.85z"/>
	<path class="st0" d="M132.74,243.96c-2.28-0.13-4.55-0.14-6.36-1.97c-1.38-1.39-2.81-0.95-4.43-0.02
		c-1.41,0.81-3.33,3.08-4.66,1.14c-1.44-2.1,1.94-2.38,2.74-3.82c0.13-0.38,0.26-0.76,0.39-1.13c-0.38,0.11-0.77,0.23-1.15,0.34
		c-1.25-0.11-2.58,1.21-3.75-0.05c-6.01-6.48-14.23-10.01-20.82-15.72c-1.37-1.18-2.56-2.45-1.39-4.2c1.02-1.53,3.72-2.22,3.86-0.37
		c0.35,4.68,4.13,5.61,6.82,7.76c2.72,2.17,5.59,4.14,8.39,6.22c2.23,1.65,4.34,3.31,6.7,0.01c0.84-1.18,2.46-1.25,3.47-0.01
		c4.11,5.06,8.24,2.21,12.23-0.01c1.11-0.62,1.8-2.13,3.3-0.99c0.48,0.36,1,1.09,0.96,1.61c-0.11,1.66-1.46,1.99-2.83,2.24
		c-0.65,0.12-1.26,0.48-1.91,0.56c-3.79,0.45-5.79,1.65-2.34,5.28c0.9,0.94,0.89,2.04,0.72,3.2L132.74,243.96z"/>
	<path class="st0" d="M185.66,58.54c0.59,3.16,1.41,7.05,1.98,10.97c0.19,1.33,0.88,3.51-0.68,3.95c-1.91,0.54-1.59-1.88-2.34-2.97
		c-2.2-3.2-4.88-6.05-5.85-10.02c-0.36-1.47-1.17-3.02-0.29-4.29c2.15-3.1,2.58-6.71,3.66-10.16c0.61-1.96,2.14-4.46,4.55-3.74
		c2.72,0.81,6.08,1.01,7.83,3.74c0.85,1.32-0.19,3.17-1.67,2.57c-8.38-3.37-4.73,4.92-7.15,7.25
		C185.37,56.15,185.66,57.11,185.66,58.54z"/>
	<path class="st1" d="M228.6,459.24c-0.25,7.87-2.35,10.52-7.57,10.88c-4.88,0.33-6.47-3.08-7.43-6.49
		c-0.9-3.17,2.35-4.41,4.54-5.59c2.36-1.27,5.03-2.11,7.47-3.1C229.46,453.37,228.4,457.41,228.6,459.24z"/>
	<path class="st0" d="M110,259.82c-4.04-0.31-6.87-1.33-9.55-3.1c-2.25-1.49-4.68-2.76-6.96,0.22c-0.44,0.58-1.44,0.75-2.2,1.05
		c-2.39,0.92-5.28,2.02-6.26-1.31c-0.88-3.02,1.06-4.11,4.3-5.02c4.07-1.14,8.55,0.92,12.5-2.88c2.97-2.86,7.37-4.57,11.92-8.07
		c-2.29,7.64-11.04,6.67-12.49,13.04C103.92,255.47,107.47,256.21,110,259.82z"/>
	<path class="st1" d="M419.8,397.82c-2.86-0.25-5.27-1.96-5.6-5.7c-0.31-3.62,3.93-8.07,7.51-7.95c3.41,0.11,6.22,2.4,7.42,4.9
		C430.47,391.84,424.16,397.76,419.8,397.82z"/>
	<path class="st1" d="M462.4,367.72c-1.91-0.4-3.64-0.48-5.11-1.15c-1.65-0.75-2.39-2.31-0.06-3.09c1.84-0.62,2.69-1.26,2.69-3.36
		c0-4.49,3.34-5.72,6.98-6.3c2.15-0.35,3.85,0.6,5.12,2.38c1.28,1.79,0.73,3.47-0.19,5.14C469.73,365.16,465.82,366.26,462.4,367.72
		z"/>
	<path class="st0" d="M376.72,382.02c-0.72-1.19-1.92-0.97-3.02-1.02c8.53-6.16,17.14-12.2,25.52-18.56
		c1.93-1.46,5.29-1.58,5.5-4.99c0,0-0.09,0.01-0.09,0.01c3.82,0.72,5.54-3.96,9.73-3.62c-3.78,4.47-8.71,6.87-12.98,10.07
		C393.22,370.03,384.95,375.99,376.72,382.02z"/>
	<path class="st0" d="M372.22,83.33c-0.44-2.07,0.22-3.32,1.23-4.16c8.93-7.47,14.13-17.95,21.58-26.62
		c1.95-2.27,3.65-4.75,5.53-7.08c0.6-0.74,1.4-1.75,2.45-0.83c1.14,1-0.02,1.82-0.61,2.48c-8.21,8.98-14.47,19.49-22.46,28.62
		C377.62,78.37,376.57,82.31,372.22,83.33z"/>
	<path class="st0" d="M404.91,260.36c0.05-2.74-0.38-4.87,1.18-6.46c1.82-1.87,3.88-2.51,6.14-0.58c2.79,2.39,3.62,10.45,1.19,12.96
		c-2.04,2.11-4.23,2.35-6.55,0.24C404.74,264.58,404.84,262.11,404.91,260.36z"/>
	<path class="st0" d="M423.65,10.01c-1.94,2.67-3.97,5.27-5.8,8.01c-2.84,4.26-6.97,7.82-7.35,13.46c-0.05,0.76-0.63,1.53-1.08,2.22
		c-1.61,2.46-4.3,5.23-6.66,3.76c-2.28-1.42,0.92-4.06,2.01-5.76c4.84-7.52,9.9-14.9,15.69-21.74c0.61-0.72,1.19-1.75,2.39-1.31
		C423.19,8.78,423.33,9.42,423.65,10.01z"/>
	<path class="st0" d="M101.38,434.46c-0.34,1.58-1.56,1.74-2.67,1.23c-8.72-4.01-17.55-7.61-27.16-8.88
		c-1.34-0.18-2.14-1.3-1.5-2.57c0.76-1.52,2.27-1.83,3.88-1.33c5.53,1.74,11.11,3.37,16.58,5.29c2.95,1.03,6.1,1.71,8.68,3.67
		C100.1,432.57,101.19,433.12,101.38,434.46z"/>
	<path class="st0" d="M35.73,159.7c1.58,0.05,2.39,0.87,3.23,1.69c4.51,4.43,9.17,8.61,15.52,10.31c0.87,0.23,1.59,1.14,2.3,1.82
		c0.91,0.86,2.46,1.69,1.26,3.2c-0.85,1.07-2.05,0.25-3.18-0.03c-8.16-2.01-13.9-7.33-18.97-13.6
		C34.95,161.93,33.95,160.74,35.73,159.7z"/>
	<path class="st0" d="M268.85,577.24c-0.38-4.43,0.13-7.32,2.18-9.73c1.55-1.82,3.51-2.6,5.71-1.19c2.39,1.53,2.73,4.04,1.27,6.05
		c-2.01,2.76-4.69,4.98-4.91,8.78c-0.05,0.9-1.23,1.68-2.25,1.62c-1.34-0.08-1.94-1.15-1.98-2.42
		C268.81,578.86,268.85,577.38,268.85,577.24z"/>
	<path class="st0" d="M132.69,100.52c-0.09,0.16-0.26,0.97-0.71,1.16c-1.1,0.48-1.95-0.2-2.34-1.19c-0.78-1.98-1.31-4.08-2.16-6.02
		c-1.95-4.44-4.69-8.3-8.58-11.32c-1.11-0.86-2.66-2.09-1.26-3.68c1.35-1.53,2.8-0.19,3.93,0.64
		C128.23,85.07,130.59,92.48,132.69,100.52z"/>
	<path class="st0" d="M132.68,244.02c0.89,0.24,1.72,0.11,2.01-0.83c0.47-1.51,1.17-3.04,2.81-3.06c3.4-0.05,6.74-0.34,10.12-0.77
		c1.17-0.15,1.12,1.73,0.13,2.69c-3.3,3.22-7.51,5.6-11.4,7.43c-4.68,2.2-3.35-2.92-3.62-5.51
		C132.74,243.96,132.68,244.02,132.68,244.02z"/>
	<path class="st0" d="M224.16,550.94c4.31,2.26,7.79-0.43,11.49-2.68c1.35-0.82,3.09-1.25,4.69-1.4c2.57-0.24,4.24,1.29,4.17,3.78
		c-0.06,2.14-1.62,4.24-3.88,3.43c-5.76-2.08-11.37,0.28-17.03-0.12c-1.25-0.09-3.13,0.07-3.01-1.72
		C220.7,550.24,222.63,551.32,224.16,550.94z"/>
	<path class="st1" d="M372.18,321.04c-3.93-0.01-5.77-1.79-5.74-5.19c0.03-3.13,1.34-5.62,4.86-5.76c3.7-0.14,5.48,2.31,5.64,5.62
		C377.1,319.05,375.06,320.83,372.18,321.04z"/>
	<path class="st0" d="M160.58,454.36c-0.42,1.66-1.62,1.82-2.73,1.33c-5.09-2.29-10.15-4.67-15.17-7.11
		c-0.96-0.47-1.19-1.55-0.93-2.6c0.23-0.92,0.97-1.24,1.84-1.37c2.67-0.4,15.01,5.99,16.41,8.52
		C160.24,453.55,160.42,454,160.58,454.36z"/>
	<path class="st1" d="M440.69,462.5c-0.25-4.36,3.38-5.14,5.97-4.96c2.89,0.19,4.24,3.6,4.46,6.21c0.25,2.89-1.8,5.2-4.92,5.1
		C442.4,468.72,440.82,466.09,440.69,462.5z"/>
	<path class="st0" d="M149.51,327.22c-0.6,3.54-2.17,6.89-4.78,7.78c-1.36,0.46-5.87-1.44-5.81-5.29c0.05-3.31,2.27-5.03,5.33-5.44
		C146.76,323.92,148.72,324.94,149.51,327.22z"/>
	<path class="st0" d="M123.72,334.79c-0.49,0.04-0.99,0.12-1.48,0.12c-1.87,0-4.42,0.96-4.84-1.85c-0.35-2.32,2.15-2.64,3.73-3.25
		c1.98-0.76,4.08-1.35,6.19-1.61c1.71-0.21,3.96-0.48,4.48,1.93c0.52,2.4-1.34,3.7-3.21,4.36c-1.48,0.53-3.23,0.32-4.86,0.43
		C123.73,334.89,123.72,334.84,123.72,334.79z"/>
	<path class="st0" d="M134.99,37.81c-5.28-4.24-5.95-10.06-6.19-15.99c-0.06-1.64,1.01-3,2.92-2.31c1.58,0.57,3.75,2.54,2.78,3.49
		c-3.65,3.59,0.14,6.28,0.52,9.31C135.23,34.03,136.33,35.7,134.99,37.81z"/>
	<path class="st1" d="M315.03,280.13c0.17,2.28,0.64,3.94,2.49,5.49c2.13,1.78,2.03,4.55-0.23,6.49c-1.96,1.69-4.18,1.02-5.77-0.66
		c-1.88-2-2.49-4.73-0.17-6.54C313.05,283.58,314.35,282.34,315.03,280.13z"/>
	<path class="st0" d="M246.17,540.91c0.04,1.43-0.55,2.03-1.42,2.15c-1.6,0.23-3.14-0.24-3.66-1.83c-0.44-1.37-0.36-2.92-0.39-4.39
		c-0.06-3.37-0.03-6.69-4.16-8.02c-1.09-0.35-2.03-1.45-1.16-2.73c0.78-1.13,2.04-1.06,3.08-0.29c1.68,1.25,3.56,2.14,4.36,4.49
		C244.07,533.95,242.83,538.36,246.17,540.91z"/>
	<path class="st0" d="M95.26,137.18c1.52,0.06,2.74,0.48,3.45,1.77c0.42,0.76,0.58,1.87-0.2,2.23c-4.06,1.9-1.81,5-1.56,7.68
		c0.11,1.15,0.64,2.43-0.91,2.87c-1.46,0.42-2.15-0.78-2.41-1.9c-0.68-2.88-1.4-5.78-1.65-8.71
		C91.79,139.01,92.84,137.28,95.26,137.18z"/>
	<path class="st0" d="M241.59,586.05c-2.67-0.05-4.54-0.23-4.69-2.72c-0.17-2.74,3.46-6.51,6.05-6.16c2.3,0.32,4.13,1.41,3.78,4.21
		C246.29,584.84,244.01,586.03,241.59,586.05z"/>
	<path class="st0" d="M206.84,116.19c0,1.04,0.06,1.39-0.01,1.71c-0.33,1.64,0.99,4.47-1.33,4.64c-2.59,0.2-1.5-2.72-1.84-4.33
		c-0.89-4.18-0.18-8.66-2.5-12.57c-0.71-1.19-1.16-2.72,0.49-3.4c1.57-0.65,2.48,0.7,2.86,1.99
		C205.74,108.36,207.12,112.48,206.84,116.19z"/>
	<path class="st0" d="M117.61,358.22c2.87,0.75,4.82,2.6,4.94,5.51c0.11,2.67-1.73,4.42-4.45,4.26c-2.99-0.18-4.36-2.47-4.25-5.17
		C113.94,360.65,114.95,358.61,117.61,358.22z"/>
	<path class="st0" d="M482.78,435.12c2.72,0.4,5.34,1.34,5.5,4.48c0.11,2.21-2.17,2.87-3.98,2.74c-2.55-0.19-5.81-0.27-6.07-3.67
		C478.05,436.15,480.4,435.3,482.78,435.12z"/>
	<path class="st0" d="M228.1,665.98c1.83-2.74,5.05-2.71,7.71-3.4c2.18-0.57,3.97,1.03,3.82,3.33c-0.17,2.73-2.36,3.24-4.71,2.98
		C232.46,668.61,229.52,669.42,228.1,665.98z"/>
	<path class="st0" d="M404.72,238.62c-0.12-1.54,0.35-2.18,1.15-2.56c1.82-0.86,3.8-0.7,5.08,0.66c1.15,1.22,2,2.31,3.88,2.3
		c1.28,0,2.29,0.96,1.72,2.35c-0.6,1.47-2.37,2.85-3.45,1.68c-2.04-2.22-4.39-2.77-7.08-3.12
		C405.23,239.82,404.72,238.95,404.72,238.62z"/>
	<path class="st0" d="M166.66,319.2c-0.32,0.61-0.64,1.22-0.96,1.83c-6.04,0.76-11.52-0.38-15.89-4.79
		C155.48,316.55,160.79,319.44,166.66,319.2z"/>
	<path class="st0" d="M300.74,565.88c0.04-0.75,0.09-1.5,0.14-2.26c3.13,3.57,4.83,8.2,8.51,11.38c0.82,0.71,1.09,1.85,0.23,2.62
		c-0.95,0.85-2.07,0.15-2.43-0.75C305.58,572.87,301.79,570.18,300.74,565.88z"/>
	<path class="st0" d="M409.59,369.03c0.18,1.9-0.36,3.93-2.96,3.79c-2-0.11-3.96-1.31-3.93-3.72c0.03-2.8,2.57-3.38,4.55-3.76
		C409.74,364.87,409.51,367.05,409.59,369.03z"/>
	<path class="st0" d="M124.9,312.32c5.43-5,9.26-0.1,13.65,1.29c0.73,0.23,1.02,0.88,0.6,1.54c-0.4,0.62-1.3,0.81-1.72,0.32
		C134.07,311.59,129.47,312.15,124.9,312.32z"/>
	<path class="st0" d="M291.18,297.08c-1.9-0.47-2.97-1.76-3.49-3.58c0.8-1,1.4-2.4,2.44-2.91c1.98-0.96,4.45-1.18,5.73,0.97
		c1.45,2.44-0.96,2.94-2.58,3.57C292.29,295.51,291.65,296.19,291.18,297.08z"/>
	<path class="st0" d="M235.91,53.22c0.42-1.68-1.04-3.87,0.96-5.42c0.81-0.63,1.57-0.33,2.19,0.32c1.87,1.94,0.64,4.05,0.28,6.1
		c-0.08,0.48-0.3,0.94-0.44,1.42c-0.39,1.31,0.05,3.51-2.17,3.12c-1.74-0.31-0.84-2.18-0.96-3.39
		C235.7,54.71,235.85,54.04,235.91,53.22z"/>
	<path class="st0" d="M418.83,502.52c2.04,0.79,4,2,4.2,4.59c0.13,1.65-0.89,2.88-2.69,2.76c-2.89-0.19-3.64-2.44-3.97-4.77
		C416.16,503.59,417.01,502.64,418.83,502.52z"/>
	<path class="st0" d="M33.41,286.23c-2.52-0.48-4.36-0.11-6.22,0.63c-1.02,0.41-2.39,0.48-2.94-0.94c-0.53-1.36,0.54-2.17,1.41-2.86
		C28.32,280.97,31.63,282.13,33.41,286.23z"/>
	<path class="st0" d="M316.82,578.41c-2.28-0.76-2.79-2.71-2.95-4.7c-0.12-1.48,0.03-3.51,1.9-3.48c2.55,0.03,3.35,2.52,3.83,4.51
		C320.03,576.56,318.52,577.68,316.82,578.41z"/>
	<path class="st0" d="M111.34,268.35c-3.48-0.21-6.62-1.33-9.51-3.13c-0.76-0.47-1.3-1.1-0.9-2.01c0.48-1.08,1.33-0.42,2.09-0.34
		C106.68,263.24,108.94,265.79,111.34,268.35z"/>
	<path class="st0" d="M152.71,275.98c-0.32,0.64-0.64,1.29-0.97,1.93c-3.6-0.54-7.05-1.45-9.87-3.74
		C146.35,270.2,148.89,276.43,152.71,275.98z"/>
	<path class="st0" d="M425.07,306.46c2.02,1.21,3.72,2.7,3.64,5.35c-0.04,1.4-1,2.27-2.28,1.91c-2.49-0.7-3.67-2.62-3.68-5.17
		C422.75,307.15,423.7,306.57,425.07,306.46z"/>
	<path class="st0" d="M345.78,232.78c-0.13,2.22-1.32,3.07-2.95,3.06c-2.24-0.01-3.22-1.44-3.1-3.6c0.09-1.64,0.79-3.14,2.63-2.85
		C344.25,229.7,345.47,231.12,345.78,232.78z"/>
	<path class="st0" d="M75.54,294.6c-0.11,1.81-0.72,3.27-2.49,3.24c-1.76-0.04-3-1.21-3.24-3.09c-0.22-1.68,0.43-3.08,2.15-3.3
		C74.25,291.16,74.83,293.11,75.54,294.6z"/>
	<path class="st0" d="M168.2,434.49c-1.68-0.14-3.23-1.12-3.46-3.19c-0.22-1.99,1.3-2.47,2.97-2.37c2.17,0.14,3.36,1.72,3.63,3.51
		C171.59,434.06,170.02,434.48,168.2,434.49z"/>
	<path class="st0" d="M452.67,363.56c-0.15,1.56-1.02,2.39-2.31,2.04c-1.95-0.53-3.69-1.62-3.81-3.93
		c-0.06-1.17,0.98-1.72,2.06-1.58C450.74,360.35,452.19,361.51,452.67,363.56z"/>
	<path class="st0" d="M256.31,236.83c-0.56,1.72-1.58,3-3.48,3c-2.04,0-2.31-1.54-2.18-3.15c0.14-1.71,0.98-2.77,2.85-2.69
		C255.32,234.06,256.09,235.16,256.31,236.83z"/>
	<path class="st0" d="M326.02,233.04c-0.24,1.92-1.34,2.93-3.31,2.98c-1.26,0.03-2.49-0.14-2.39-1.76c0.11-1.84,1.15-3.25,2.97-3.55
		C324.77,230.47,325.75,231.45,326.02,233.04z"/>
	<path class="st0" d="M353.68,262.66c-1.77-0.44-2.89-1.58-2.77-3.4c0.09-1.31,1.18-1.82,2.52-1.58c1.59,0.28,2.91,1.11,2.93,2.75
		C356.37,261.86,355.26,262.69,353.68,262.66z"/>
	<path class="st0" d="M336.6,573.37c-0.26,1.7-1.15,2.73-2.95,2.73c-1.52,0-2.68-0.65-2.59-2.31c0.09-1.71,1.21-2.71,2.93-2.78
		C335.52,570.95,336.47,571.76,336.6,573.37z"/>
	<path class="st0" d="M262.33,262.87c-0.25-0.39-0.49-0.79-0.74-1.18c1.87-2.57,4.85-3.14,7.64-4.15
		C267.25,259.76,265.15,261.77,262.33,262.87z"/>
	<path class="st0" d="M323.82,584.44c0.75,0.04,0.98-0.02,1.06,0.06c2.09,2.04,2.73,4.57,2.32,7.39c-0.02,0.16-1.07,0.44-1.23,0.27
		C323.91,590.03,323.6,587.42,323.82,584.44z"/>
	<path class="st0" d="M146.6,438.08c-1.3-0.05-2.45-0.41-2.42-1.87c0.03-1.8,1.43-2.56,2.96-2.72c0.98-0.11,2.01,0.47,2.09,1.64
		C149.35,436.94,148.12,437.7,146.6,438.08z"/>
	<path class="st0" d="M204.58,441.85c-1.94-0.51-2.46-2-2.51-3.46c-0.04-1.13,0.66-2.37,2.09-2.31c1.82,0.07,2.51,1.43,2.58,3.04
		C206.8,440.66,205.85,441.5,204.58,441.85z"/>
	<path class="st0" d="M167.87,343.58c-0.46,1.77-1.76,3.01-3.45,3.62c-0.75,0.27-1.75-0.83-1.24-1.53c0.98-1.33,0.34-3.87,2.83-4.05
		C167.22,341.53,167.69,342.37,167.87,343.58z"/>
	<path class="st0" d="M224.19,564.33c-0.07,1.3-0.67,2.31-1.98,2.41c-1.52,0.12-2.49-0.91-2.73-2.31c-0.24-1.38,0.8-2.16,2-2.33
		C223.03,561.88,223.86,562.87,224.19,564.33z"/>
	<path class="st0" d="M434.05,369.75c-0.05,1.24-0.4,2.17-1.68,2.17c-1.88,0.01-3.26-0.94-3.59-2.78c-0.26-1.42,0.85-2.2,2.16-2.04
		C432.5,367.29,433.71,368.17,434.05,369.75z"/>
	<path class="st0" d="M130.55,225c-0.04,1.42-0.75,2.01-1.91,1.96c-1.84-0.08-2.62-1.27-2.62-2.96c0-1.13,0.75-1.96,1.87-1.89
		C129.67,222.23,130.24,223.65,130.55,225z"/>
	<path class="st0" d="M231,266.03c0,0-0.05,0.05-0.04,0.05c-0.52-2.93,0.69-5.68,1.36-8.5C234.14,260.62,234.32,263.49,231,266.03z"
		/>
	<path class="st0" d="M31.52,574.87c-1.58-0.06-2.45-1.02-2.37-2.46c0.08-1.39,0.95-2.39,2.54-2.37c1.43,0.01,2,0.84,2.01,2.17
		C33.72,573.7,33.1,574.68,31.52,574.87z"/>
	<path class="st0" d="M389.65,384.15c1.52-0.03,2.09,0.81,2.1,2.13c0.02,1.53-0.7,2.55-2.28,2.57c-1.3,0.02-2.19-0.84-2.21-2.13
		C387.24,385.21,388.32,384.47,389.65,384.15z"/>
	<path class="st0" d="M231,690.43c-1.55-0.26-2.05-1.18-1.72-2.18c0.49-1.48,1.02-3.3,3.11-3.09c1.21,0.12,1.33,1.32,1.13,2.31
		C233.21,689.02,232.32,690.09,231,690.43z"/>
	<path class="st0" d="M153.58,464.75c-0.4,1.33-1.44,1.76-2.68,1.65c-1.33-0.11-2.19-0.87-2.03-2.28c0.16-1.46,1.21-1.92,2.51-1.6
		C152.5,462.81,153.67,463.19,153.58,464.75z"/>
	<path class="st0" d="M156.36,331.76c-0.23,1.01-0.56,2.05-1.76,1.99c-1.67-0.09-2.69-1.11-2.69-2.81c0-1.16,0.92-1.72,1.98-1.67
		C155.39,329.35,156.13,330.36,156.36,331.76z"/>
	<path class="st0" d="M418.37,420.63c-1.48-0.15-1.93-1.22-1.98-2.44c-0.05-1.35,0.59-2.24,2.1-2.16c1.43,0.07,2.15,0.96,2.07,2.28
		C420.49,419.58,419.71,420.43,418.37,420.63z"/>
	<path class="st0" d="M29.88,657.58c-0.11,1.26-0.61,2.21-2.03,2.26c-1.41,0.05-2.06-0.78-2.11-2.1c-0.05-1.54,0.65-2.54,2.26-2.52
		C29.45,655.25,29.82,656.35,29.88,657.58z"/>
	<path class="st0" d="M1.73,682.26c1.53,0.24,1.71,1.39,1.66,2.59c-0.04,1.03-0.33,2.08-1.67,1.92c-1.45-0.18-1.79-1.29-1.72-2.56
		C0.06,683.12,0.42,682.26,1.73,682.26z"/>
	<path class="st0" d="M138.36,297.09c1.1,0.34,2.18,0.75,2.27,2.13c0.1,1.39-0.71,2.16-2.02,2.13c-1.25-0.03-2.16-0.83-2.29-2.08
		C136.18,297.93,137.03,297.23,138.36,297.09z"/>
	<path class="st0" d="M44.39,511.26c1.03,0.19,1.96,0.54,1.96,1.79c0,1.16-0.72,1.84-1.84,1.88c-1.27,0.05-2.36-0.38-2.21-1.93
		C42.41,511.85,43.37,511.46,44.39,511.26z"/>
	<path class="st0" d="M178.34,503.01c-0.99-0.11-1.58-0.59-1.56-1.65c0.09-1.76,0.96-2.65,2.77-2.47c0.87,0.09,1.59,0.5,1.67,1.41
		C181.42,502.39,178.93,501.7,178.34,503.01z"/>
	<path class="st0" d="M392.16,351.03c-0.95-0.07-1.9-0.13-2.85-0.2c2.03-1.18,3.57-6.25,6.42-0.8c0,0,0.01-0.01,0.01-0.01
		C394.07,348.65,393.07,349.67,392.16,351.03z"/>
	<path class="st0" d="M284.87,521.06c0.88,0.64,0.82,1.52,0.64,2.43C284.79,522.81,283.94,522.17,284.87,521.06z"/>
	<path class="st0" d="M265.69,447.04c-2.88,0.15-6.25,1.08-6.48-3.49c-0.09-1.8,0.15-3.97,2.4-4.22c1.85-0.21,3.53,0.96,4.01,2.93
		c0.3,1.23,0.05,2.6,0.05,3.91C265.72,446.45,265.73,446.75,265.69,447.04z"/>
	<path class="st0" d="M215.68,335.15c1.52,0.1,2.18-2.87,4.09-1.18c0.43,0.38,0.85,1.18,0.74,1.66c-0.39,1.76-1.99,1.85-3.41,2.1
		C216.63,336.87,216.15,336.01,215.68,335.15z"/>
	<path class="st0" d="M256.6,335.53c-1.52,0.29-3,0.33-3.55-1.49c-0.26-0.86,0.24-1.66,1.15-1.81c2.09-0.33,2.35,1.16,2.47,2.72
		C256.75,335.15,256.72,335.34,256.6,335.53z"/>
	<path class="st0" d="M281.74,365.94c-1.19-0.44-2.87-0.69-2.59-2.35c0.33-1.95,2.29-1.21,3.58-1.57c0,0-0.03-0.06-0.03-0.06
		c-0.01,0.87-0.01,1.74-0.02,2.61C282.37,365.02,282.06,365.48,281.74,365.94z"/>
	<path class="st0" d="M285.95,533.08c-1.75-1.88-1.19-3.54-0.8-5.18C285.57,529.41,286.61,530.82,285.95,533.08z"/>
	<path class="st2" d="M392.16,351.03c0.91-1.36,1.91-2.38,3.58-1.01C394.96,351.8,393.42,350.92,392.16,351.03z"/>
	<path class="st2" d="M282.68,364.55c0.01-0.87,0.01-1.74,0.02-2.61C284.01,362.82,284.17,363.69,282.68,364.55z"/>
	<polygon class="st0" points="175.62,321.62 175.24,321.92 175.32,321.62 	"/>
	<polygon class="st2" points="202.7,207.02 202.87,206.86 202.65,206.98 	"/>
	<path class="st2" d="M119.26,238.51c0.38-0.11,0.77-0.23,1.15-0.34c-0.13,0.38-0.26,0.75-0.39,1.13
		C119.77,239.04,119.52,238.77,119.26,238.51z"/>
	<path class="st1" d="M263.47,404.09c-1.46-0.41-3.74-0.87-5.87-1.7c-2.76-1.07-5.06-3.01-4.97-6.16c0.09-3.16,1.96-5.64,4.9-6.92
		c3.23-1.41,5.34,0.44,7.05,2.94c0.75,1.1,1.55,2.06,2.79,2.73c1.94,1.06,5.37,1.05,3.9,4.93
		C270.07,403.04,267.96,404.38,263.47,404.09z"/>
	<path class="st1" d="M279.05,388.1c3.68,0.65,5.72,2.86,5.43,6.22c-0.32,3.71-3.39,5.38-6.72,5.46c-3.13,0.07-5.51-1.58-5.1-5.28
		C273.09,390.65,275.69,388.87,279.05,388.1z"/>
	<path class="st0" d="M249.72,394.94c-0.15,1.67-1.05,2.16-2.04,1.47c-2.78-1.96-6.21-2.36-9.07-4.03
		c-1.52-0.88-2.69-2.45-1.65-4.17c1.23-2.03,3.48-1.62,4.71-0.24C244.1,390.69,247.14,392.68,249.72,394.94z"/>
	<path class="st0" d="M250.03,323.27c1.96,0.94,2.8,2.6,2.66,4.79c-0.07,1.13-0.69,2.06-1.87,1.74c-2.35-0.65-2.61-2.8-2.76-4.77
		C247.98,323.99,248.63,323.13,250.03,323.27z"/>
	<path class="st0" d="M229.7,374.63c-0.03,1.2-0.72,1.84-1.86,1.84c-1.14,0-1.91-0.73-1.92-1.83c-0.02-1.34,0.82-2.22,2.19-2.11
		C229.22,372.62,229.8,373.44,229.7,374.63z"/>
</g>
</svg>
